<svg width="1336" height="700" xmlns="http://www.w3.org/2000/svg"><defs><linearGradient id="a" gradientTransform="rotate(90)"><stop offset="5%" stop-color="#e5dda5"/><stop offset="95%" stop-color="#ebe5bb"/></linearGradient><linearGradient id="b" gradientTransform="rotate(90)"><stop offset="5%" stop-color="#ddd49f"/><stop offset="95%" stop-color="#e5deb7"/></linearGradient><linearGradient id="c" gradientTransform="rotate(90)"><stop offset="5%" stop-color="#d4cb99"/><stop offset="95%" stop-color="#ded8b2"/></linearGradient><linearGradient id="d" gradientTransform="rotate(90)"><stop offset="5%" stop-color="#cbc393"/><stop offset="95%" stop-color="#d8d2ae"/></linearGradient><linearGradient id="e" gradientTransform="rotate(90)"><stop offset="5%" stop-color="#c0b88b"/><stop offset="95%" stop-color="#cfc9a8"/></linearGradient><linearGradient id="f" gradientTransform="rotate(90)"><stop offset="5%" stop-color="#ada680"/><stop offset="95%" stop-color="#c1bc9f"/></linearGradient><linearGradient id="g" gradientTransform="rotate(90)"><stop offset="5%" stop-color="#999474"/><stop offset="95%" stop-color="#b2ae96"/></linearGradient><linearGradient id="h" gradientTransform="rotate(90)"><stop offset="5%" stop-color="#868269"/><stop offset="95%" stop-color="#a4a18e"/></linearGradient><linearGradient id="i" gradientTransform="rotate(90)"><stop offset="5%" stop-color="#73705e"/><stop offset="95%" stop-color="#969386"/></linearGradient><linearGradient id="j" gradientTransform="rotate(90)"><stop offset="5%" stop-color="#656457"/><stop offset="95%" stop-color="#8b8a81"/></linearGradient><linearGradient id="k" gradientTransform="rotate(90)"><stop offset="5%" stop-color="#5e5d54"/><stop offset="95%" stop-color="#86857e"/></linearGradient><linearGradient id="l" gradientTransform="rotate(90)"><stop offset="5%" stop-color="#565751"/><stop offset="95%" stop-color="#80817c"/></linearGradient><linearGradient id="m" gradientTransform="rotate(90)"><stop offset="5%" stop-color="#4e504e"/><stop offset="95%" stop-color="#7a7b7a"/></linearGradient><linearGradient id="n" gradientTransform="rotate(90)"><stop offset="5%" stop-color="#474a4c"/><stop offset="95%" stop-color="#757778"/></linearGradient><linearGradient id="o" gradientTransform="rotate(90)"><stop offset="5%" stop-color="#434648"/><stop offset="95%" stop-color="#727475"/></linearGradient><linearGradient id="p" gradientTransform="rotate(90)"><stop offset="5%" stop-color="#3f4245"/><stop offset="95%" stop-color="#6f7173"/></linearGradient><linearGradient id="q" gradientTransform="rotate(90)"><stop offset="5%" stop-color="#3c3f42"/><stop offset="95%" stop-color="#6c6f71"/></linearGradient><linearGradient id="r" gradientTransform="rotate(90)"><stop offset="5%" stop-color="#393c3e"/><stop offset="95%" stop-color="#6a6c6e"/></linearGradient><linearGradient id="s" gradientTransform="rotate(90)"><stop offset="5%" stop-color="#36393b"/><stop offset="95%" stop-color="#686a6c"/></linearGradient></defs><path fill="#eee6ab" d="M0 0h1336v700H0z"/><path d="M0 35c15.839 3.777 31.677 7.555 45 5 13.323-2.555 24.129-11.442 39-14 14.871-2.558 33.807 1.213 49 2 15.193.787 26.642-1.41 41-3s31.626-2.573 49 1 34.855 11.7 49 14c14.145 2.3 24.954-1.229 39-4s31.33-4.786 45-6c13.67-1.214 23.726-1.628 39-3 15.274-1.372 35.765-3.702 51-3s25.215 4.435 39 9 31.376 9.962 48 10c16.624.038 32.282-5.282 47-5 14.718.282 28.495 6.167 43 5 14.505-1.167 29.738-9.385 44-14s27.554-5.626 44-5c16.446.626 36.045 2.889 51 3 14.955.111 25.264-1.93 38-2 12.736-.07 27.897 1.828 44 4 16.103 2.172 33.148 4.618 49 3 15.852-1.618 30.51-7.3 44-4 13.49 3.3 25.811 15.585 41 17 15.189 1.415 33.246-8.039 50-9 16.754-.961 32.206 6.57 46 5 13.794-1.57 25.928-12.245 41-12 15.072.245 33.08 11.408 46 13 12.92 1.592 20.752-6.388 36-10 15.248-3.612 37.912-2.855 54 1s25.6 10.807 39 11c13.4.193 30.686-6.373 39-9s7.657-1.313 47 0l-40 665H0Z" fill="url(#a)"/><path d="M0 70c18.46.464 36.92.927 50 3 13.08 2.073 20.78 5.754 36 2 15.22-3.754 37.962-14.943 53-14 15.038.943 22.371 14.018 35 18 12.629 3.982 30.553-1.13 46-2 15.447-.87 28.418 2.503 43 1 14.582-1.503 30.777-7.881 46-10 15.223-2.119 29.475.022 45 0 15.525-.022 32.324-2.208 49-4 16.676-1.792 33.229-3.192 45-1s18.761 7.976 35 10 41.727.29 57-2c15.273-2.29 20.33-5.134 32-2 11.67 3.134 29.953 12.245 45 10 15.047-2.245 26.858-15.846 44-16 17.142-.154 39.617 13.14 55 15 15.383 1.86 23.676-7.711 36-12 12.324-4.289 28.678-3.293 44-2 15.322 1.293 29.61 2.885 45 2 15.39-.885 31.88-4.248 48-4 16.12.248 31.87 4.105 47 8 15.13 3.895 29.639 7.828 45 4 15.361-3.828 31.575-15.418 45-14 13.425 1.418 24.06 15.844 39 18 14.94 2.156 34.185-7.957 51-13 16.815-5.043 31.198-5.014 46-4 14.802 1.014 30.021 3.015 43 6s23.716 6.955 38 9c14.284 2.045 32.115 2.166 49 0 16.885-2.166 32.824-6.619 40-8 7.176-1.381 5.588.31 44 2l-40 630H0Z" fill="url(#b)"/><path d="M0 105c12.73-2.066 25.458-4.132 40-5 14.542-.868 30.896-.537 46 0s28.958 1.28 46 1 37.272-1.586 51 1c13.728 2.586 20.955 9.061 35 7 14.045-2.061 34.91-12.66 53-15 18.09-2.34 33.409 3.578 46 5 12.591 1.422 22.456-1.653 35 0s27.766 8.035 44 10c16.234 1.965 33.48-.485 50-1 16.52-.515 32.313.905 46 1 13.687.095 25.268-1.136 38-4s26.615-7.362 44-6 38.271 8.583 53 10c14.729 1.417 23.3-2.972 37-6s32.527-4.697 48-4c15.473.697 27.593 3.76 40 5 12.407 1.24 25.101.66 42 1 16.899.34 38.001 1.601 54 0 15.999-1.601 26.894-6.066 39-4 12.106 2.066 25.425 10.661 42 10 16.575-.661 36.408-10.579 52-12 15.592-1.421 26.942 5.654 39 6 12.058.346 24.824-6.038 42-7 17.176-.962 38.762 3.497 53 7s21.127 6.05 36 6c14.873-.05 37.728-2.699 53-5 15.272-2.301 22.96-4.256 37-4 14.04.256 34.434 2.723 52 4 17.566 1.277 32.305 1.365 39 1s5.348-1.182 44-2l-40 595H0Z" fill="url(#c)"/><path d="M0 140c13.615 5.237 27.23 10.474 42 8s30.693-12.66 46-14c15.307-1.34 29.998 6.163 45 9 15.002 2.837 30.315 1.008 45-3 14.685-4.008 28.74-10.196 44-9 15.26 1.196 31.723 9.776 47 13 15.277 3.224 29.366 1.09 45-1s32.813-4.14 48-5c15.187-.86 28.381-.53 41-3 12.619-2.47 24.663-7.736 39-6 14.337 1.736 30.968 10.476 48 14 17.032 3.524 34.467 1.831 47-2 12.533-3.831 20.165-9.8 36-10 15.835-.2 39.874 5.37 55 8 15.126 2.63 21.34 2.32 35 2 13.66-.32 34.769-.653 51-1s27.586-.707 40 0c12.414.707 25.888 2.481 41 5 15.112 2.519 31.862 5.782 48 2s31.663-14.608 48-15c16.337-.392 33.485 9.65 49 11 15.515 1.35 29.395-5.992 44-7s29.933 4.319 45 3 29.873-9.283 42-9c12.127.283 21.574 8.815 37 11 15.426 2.185 36.83-1.976 52-3 15.17-1.024 24.11 1.09 38 0s32.734-5.385 50-3 32.956 11.45 49 12c16.044.55 32.441-7.414 39-10 6.559-2.586 3.28.207 40 3l-40 560H0Z" fill="url(#d)"/><path d="M0 175c16.654-1.375 33.308-2.749 47 0s24.42 9.622 40 8c15.58-1.622 36.009-11.737 52-13s27.544 6.328 40 10c12.456 3.672 25.814 3.425 41 1s32.2-7.027 49-9c16.8-1.973 33.386-1.317 48 0 14.614 1.317 27.257 3.295 39 2 11.743-1.295 22.588-5.865 39-5 16.412.865 38.391 7.164 55 7 16.609-.164 27.848-6.79 40-7 12.152-.21 25.217 5.996 42 9 16.783 3.004 37.282 2.806 52 3 14.718.194 23.653.778 36-1 12.347-1.778 28.106-5.92 44-9 15.894-3.08 31.925-5.098 48-2s32.196 11.312 46 13c13.804 1.688 25.291-3.15 41-4 15.709-.85 35.639 2.29 51 4 15.361 1.71 26.154 1.992 41 0s33.744-6.256 50-11 29.87-9.967 42-6c12.13 3.967 22.778 17.125 38 18 15.222.875 35.02-10.532 50-10 14.98.532 25.141 13.002 40 12 14.859-1.002 34.414-15.476 49-18 14.586-2.524 24.201 6.904 38 8s31.781-6.14 46-6c14.219.14 24.674 7.653 41 10 16.326 2.347 38.522-.472 48-2 9.478-1.528 6.24-1.764 43-2l-40 525H0Z" fill="url(#e)"/><path d="M0 210c14.758 1.588 29.515 3.177 44 1s28.697-8.118 44-7c15.303 1.118 31.697 9.295 46 10 14.303.705 26.517-6.062 42-6 15.483.062 34.236 6.954 49 6 14.764-.954 25.54-9.755 39-11 13.46-1.245 29.607 5.067 47 10s36.033 8.487 51 5c14.967-3.487 26.26-14.015 39-16 12.74-1.985 26.924 4.571 41 5 14.076.429 28.042-5.27 45-4 16.958 1.27 36.906 9.512 53 14 16.094 4.488 28.332 5.223 40 2s22.766-10.404 37-10c14.234.404 31.604 8.393 47 11 15.396 2.607 28.819-.169 43-5 14.181-4.831 29.121-11.718 46-10s35.696 12.042 50 13c14.304.958 24.094-7.45 39-8 14.906-.55 34.927 6.758 52 5s31.199-12.58 46-15c14.801-2.42 30.278 3.566 45 4 14.722.434 28.69-4.682 42-4 13.31.682 25.964 7.163 40 12 14.036 4.837 29.453 8.029 46 8 16.547-.029 34.224-3.278 49-6 14.776-2.722 26.65-4.917 42-7 15.35-2.083 34.176-4.053 47-3 12.824 1.053 19.645 5.13 36 5 16.355-.13 42.244-4.466 52-5 9.756-.534 3.378 2.733 37 6l-40 490H0Z" fill="url(#f)"/><path d="M0 245c11.273 3.177 22.547 6.355 38 4 15.453-2.355 35.086-10.241 50-12 14.914-1.759 25.11 2.61 39 7 13.89 4.39 31.473 8.804 48 8 16.527-.804 31.999-6.824 45-11 13.001-4.176 23.532-6.51 40-3s38.872 12.86 55 12c16.128-.86 25.978-11.93 40-15 14.022-3.07 32.216 1.862 49 4s32.158 1.482 45 3c12.842 1.518 23.154 5.21 36 4s28.228-7.325 45-11 34.934-4.91 52 1c17.066 5.91 33.037 18.962 47 18 13.963-.962 25.917-15.94 40-19 14.083-3.06 30.294 5.796 47 8 16.706 2.204 33.905-2.245 47-4 13.095-1.755 22.085-.815 34-2s26.754-4.496 43-2c16.246 2.496 33.9 10.798 52 14s36.648 1.304 49 1c12.352-.304 18.507.986 32-1 13.493-1.986 34.322-7.247 52-7 17.678.247 32.205 6.003 46 7 13.795.997 26.856-2.765 41-2 14.144.765 29.37 6.055 45 5 15.63-1.055 31.666-8.457 47-11 15.334-2.543 29.966-.228 44 3 14.034 3.228 27.47 7.37 44 6s36.151-8.248 44-10c7.849-1.752 3.924 1.624 40 5l-40 455H0Z" fill="url(#g)"/><path d="M0 280c14.832 3.699 29.664 7.397 46 4 16.336-3.397 34.175-13.89 47-13 12.825.89 20.634 13.161 34 18s32.289 2.245 48-1c15.711-3.245 28.212-7.14 43-8 14.788-.86 31.865 1.315 48-1s31.33-9.121 47-6c15.67 3.121 31.815 16.17 47 16 15.185-.17 29.411-13.558 43-16 13.589-2.442 26.54 6.061 42 9s33.43.313 47 0 22.739 1.688 36 3 30.615 1.936 47 2c16.385.064 31.8-.43 47-4s30.184-10.212 45-11c14.816-.788 29.466 4.28 44 8 14.534 3.72 28.954 6.093 45 5s33.719-5.65 48-5c14.281.65 25.172 6.51 40 8 14.828 1.49 33.594-1.388 49-5 15.406-3.612 27.453-7.956 41-7 13.547.956 28.593 7.212 43 7 14.407-.212 28.174-6.893 44-9s33.71.358 48 3 24.987 5.46 40 8c15.013 2.54 34.343 4.801 48 3 13.657-1.801 21.64-7.665 38-12s41.096-7.141 58-4c16.904 3.141 25.974 12.23 39 15 13.026 2.77 30.007-.78 38-3 7.993-2.22 6.996-3.11 46-4l-40 420H0Z" fill="url(#h)"/><path d="M0 315c15.225-5.034 30.45-10.068 46-7 15.55 3.068 31.422 14.237 47 15 15.578.763 30.86-8.882 46-11 15.14-2.118 30.138 3.29 44 2 13.862-1.29 26.588-9.276 41-9 14.412.276 30.51 8.813 45 9 14.49.187 27.37-7.977 40-8 12.63-.023 25.008 8.093 42 12s38.599 3.603 55 0c16.401-3.603 27.596-10.507 40-9 12.404 1.507 26.016 11.426 42 11 15.984-.426 34.34-11.195 49-13 14.66-1.805 25.62 5.354 40 10 14.38 4.646 32.176 6.78 49 3 16.824-3.78 32.676-13.471 48-16 15.324-2.529 30.119 2.105 42 6s20.849 7.05 37 5 39.486-9.309 55-8c15.514 1.309 23.206 11.184 34 13 10.794 1.816 24.69-4.428 43-9s41.035-7.471 55-4c13.965 3.471 19.171 13.313 34 17 14.829 3.687 39.28 1.218 55-1 15.72-2.218 22.711-4.184 34-5 11.289-.816 26.877-.481 45-4s38.782-10.892 55-10c16.218.892 27.995 10.048 43 12 15.005 1.952 33.238-3.302 46-5s20.051.158 34-1c13.949-1.158 34.557-5.33 44-5 9.443.33 7.722 5.165 46 10l-40 385H0Z" fill="url(#i)"/><path d="M0 350c12.372 1.704 24.744 3.408 39 5s30.396 3.07 45 1 27.672-7.69 43-7c15.328.69 32.917 7.69 50 10 17.083 2.31 33.66-.068 50-4 16.34-3.932 32.442-9.418 46-12 13.558-2.582 24.573-2.26 39 0s32.264 6.46 46 8c13.736 1.54 23.369.417 36 1s28.261 2.871 44 0 31.587-10.901 48-10c16.413.901 33.39 10.734 49 15s29.85 2.965 44 2c14.15-.965 28.21-1.595 44-5 15.79-3.405 33.307-9.584 49-12 15.693-2.416 29.56-1.07 43-1 13.44.07 26.455-1.137 41 2 14.545 3.137 30.62 10.62 45 14 14.38 3.38 27.063 2.66 41-3 13.937-5.66 29.127-16.261 45-15 15.873 1.261 32.43 14.384 49 18 16.57 3.616 33.156-2.277 47-7 13.844-4.723 24.945-8.278 38-8 13.055.278 28.062 4.39 43 8 14.938 3.61 29.807 6.719 45 8 15.193 1.281 30.71.736 48-1s36.354-4.661 51-9 24.874-10.09 38-8c13.126 2.09 29.15 12.024 47 13 17.85.976 37.529-7.007 45-9 7.471-1.993 2.736 2.003 38 6l-40 350H0Z" fill="url(#j)"/><path d="M0 385c17.754-4.954 35.509-9.908 49-8 13.491 1.908 22.719 10.678 38 12 15.281 1.322 36.616-4.805 51-7 14.384-2.195 21.817-.458 36-2s35.117-6.363 52-5c16.883 1.363 29.717 8.911 41 11 11.283 2.089 21.015-1.283 38-1 16.985.283 41.222 4.219 57 2 15.778-2.219 23.097-10.593 35-11 11.903-.407 28.39 7.152 45 12s33.346 6.984 49 4c15.654-2.984 30.227-11.089 43-15 12.773-3.911 23.746-3.63 38-2 14.254 1.63 31.787 4.606 49 6 17.213 1.394 34.105 1.206 50 2 15.895.794 30.793 2.569 44 1s24.723-6.481 40-9c15.277-2.519 34.316-2.644 52 1 17.684 3.644 34.015 11.056 45 14 10.985 2.944 16.624 1.42 32 1 15.376-.42 40.487.266 57-1 16.513-1.266 24.427-4.483 39-4 14.573.483 35.806 4.666 50 7 14.194 2.334 21.35 2.819 33 2 11.65-.819 27.797-2.942 45-7s35.462-10.052 51-12c15.538-1.948 28.354.15 44 2s34.122 3.455 48 4c13.878.545 23.16.031 40 3s41.24 9.42 50 10c8.76.58 1.88-4.71 35-10l-40 315H0Z" fill="url(#k)"/><path d="M0 420c15.656 3.48 31.313 6.961 47 4 15.687-2.961 31.406-12.365 47-15 15.594-2.635 31.064 1.498 45 3s26.34.373 38 0 22.577.009 40 4 41.35 11.59 56 13c14.65 1.41 20.02-3.372 32-6s30.568-3.104 48-4c17.432-.896 33.708-2.21 48 0 14.292 2.21 26.601 7.947 42 10 15.399 2.053 33.887.422 47-5s20.85-14.637 37-13c16.15 1.637 40.713 14.125 57 18s24.298-.862 36-4c11.702-3.138 27.094-4.679 44-3 16.906 1.679 35.324 6.576 50 4 14.676-2.576 25.61-12.624 39-14 13.39-1.376 29.237 5.92 44 7 14.763 1.08 28.44-4.058 43-4 14.56.058 30 5.313 44 5 14-.313 26.562-6.194 44-8s39.754.461 56 2c16.246 1.539 26.424 2.349 39 4 12.576 1.651 27.55 4.144 42 3 14.45-1.144 28.373-5.926 46-8s38.958-1.44 53 0c14.042 1.44 20.796 3.687 35 6s35.859 4.692 50 5c14.141.308 20.769-1.456 37-1 16.231.456 42.066 3.13 52 3 9.934-.13 3.967-3.065 38-6l-40 280H0Z" fill="url(#l)"/><path d="M0 455c16.954 2.306 33.908 4.611 48 7 14.092 2.389 25.322 4.861 38 2 12.678-2.861 26.804-11.057 43-12 16.196-.943 34.462 5.366 51 5 16.538-.366 31.346-7.407 46-9s29.153 2.261 43 3c13.847.739 27.043-1.638 40-1 12.957.638 25.674 4.292 42 5 16.326.708 36.262-1.528 53-3s30.277-2.178 44-3c13.723-.822 27.631-1.76 43-1s32.198 3.218 47 6 27.576 5.889 43 4c15.424-1.889 33.498-8.773 46-10 12.502-1.227 19.432 3.202 35 6 15.568 2.798 39.775 3.964 56 5s24.467 1.943 36-1c11.533-2.943 26.357-9.737 42-10 15.643-.263 32.104 6.004 47 9 14.896 2.996 28.226 2.72 45 0s36.99-7.887 51-9c14.01-1.113 21.813 1.829 36 5 14.187 3.171 34.76 6.572 51 5 16.24-1.572 28.15-8.116 43-8 14.85.116 32.643 6.891 48 7 15.357.109 28.277-6.449 43-9 14.723-2.551 31.249-1.095 47 3 15.751 4.095 30.727 10.83 45 12s27.843-3.223 43-6 31.902-3.936 39-4c7.098-.064 4.549.968 42 2l-40 245H0Z" fill="url(#m)"/><path d="M0 490c12.397-4.691 24.794-9.382 41-7 16.206 2.382 36.222 11.837 52 15 15.778 3.163 27.319.035 42-2 14.681-2.035 32.502-2.977 49-5 16.498-2.023 31.673-5.128 44-5 12.327.128 21.808 3.488 37 6s36.097 4.177 52 5c15.903.823 26.804.806 41-3 14.196-3.806 31.686-11.4 46-13 14.314-1.6 25.452 2.792 39 6 13.548 3.208 29.507 5.231 45 7 15.493 1.769 30.52 3.282 45 4s28.415.64 45 1 35.822 1.157 50 0c14.178-1.157 23.299-4.269 36-8s28.984-8.082 46-9c17.016-.918 34.765 1.597 50 5s27.955 7.696 42 7c14.045-.696 29.415-6.38 45-8s31.385.825 44 5c12.615 4.175 22.047 10.081 38 9 15.953-1.081 38.428-9.15 55-14 16.572-4.85 27.24-6.483 39-4 11.76 2.483 24.614 9.081 39 11 14.386 1.919 30.305-.842 46-2s31.168-.714 46 0 29.024 1.697 46 1c16.976-.697 36.736-3.073 52-5 15.264-1.927 26.033-3.403 40-3 13.967.403 31.134 2.687 39 4 7.866 1.313 6.433 1.657 45 2l-40 210H0Z" fill="url(#n)"/><path d="M0 525c17.468-2.215 34.936-4.43 50-5 15.064-.57 27.724.503 40 1s24.168.417 40 1 35.603 1.828 50 4c14.397 2.172 23.419 5.27 37 5 13.581-.27 31.722-3.907 49-6s33.694-2.64 47 0c13.306 2.64 23.502 8.467 37 8 13.498-.467 30.299-7.228 46-9 15.701-1.772 30.303 1.444 45 3s29.488 1.45 44-1 28.746-7.248 45-5 34.53 11.54 50 11c15.47-.54 28.135-10.913 42-13 13.865-2.087 28.93 4.112 44 6s30.147-.533 45-1c14.853-.467 29.482 1.022 44-1 14.518-2.022 28.926-7.554 44-7 15.074.554 30.815 7.193 48 9 17.185 1.807 35.812-1.216 49-3 13.188-1.784 20.935-2.327 34 2 13.065 4.327 31.447 13.523 47 11 15.553-2.523 28.275-16.765 45-17 16.725-.235 37.452 13.536 51 14 13.548.464 19.916-12.38 34-15 14.084-2.62 35.883 4.981 51 6 15.117 1.019 23.554-4.545 38-5 14.446-.455 34.903 4.198 50 6 15.097 1.802 24.834.755 42 0s41.762-1.216 51-1c9.238.216 3.12 1.108 37 2l-40 175H0Z" fill="url(#o)"/><path d="M0 560c18.712-.795 37.425-1.59 50-3 12.575-1.41 19.013-3.436 32-2 12.987 1.436 32.524 6.332 50 6 17.476-.332 32.89-5.893 47-5 14.11.893 26.912 8.24 43 10 16.088 1.76 35.46-2.066 51-1 15.54 1.066 27.249 7.023 41 5 13.751-2.023 29.544-12.026 44-15s27.574 1.08 43 1c15.426-.08 33.16-4.297 49-5 15.84-.703 29.785 2.108 45 2 15.215-.108 31.701-3.135 44-1s20.41 9.43 34 9c13.59-.43 32.66-8.586 49-9 16.34-.414 29.948 6.913 45 7 15.052.087 31.546-7.068 48-6 16.454 1.068 32.87 10.357 46 14 13.13 3.643 22.978 1.639 36 2 13.022.361 29.219 3.087 44-2 14.781-5.087 28.147-17.987 44-18 15.853-.013 34.194 12.86 52 16 17.806 3.14 35.079-3.457 48-5 12.921-1.543 21.49 1.965 34 1 12.51-.965 28.958-6.405 44-6 15.042.405 28.676 6.656 45 9 16.324 2.344 35.338.782 52 0s30.973-.784 44-4c13.027-3.216 24.77-9.645 40-10 15.23-.355 33.947 5.366 53 6 19.053.634 38.444-3.819 45-4 6.556-.181.278 3.91 34 8l-40 140H0Z" fill="url(#p)"/><path d="M0 595c12.26-2.895 24.519-5.79 38-3 13.481 2.79 28.184 11.265 44 9 15.816-2.265 32.744-15.269 48-16 15.256-.731 28.841 10.811 45 11 16.159.189 34.891-10.976 50-10 15.109.976 26.593 14.092 40 15 13.407.908 28.736-10.39 43-15 14.264-4.61 27.461-2.529 42-1 14.539 1.529 30.418 2.505 46 6s30.865 9.507 45 12c14.135 2.493 27.12 1.465 43-4 15.88-5.465 34.655-15.369 51-15 16.345.369 30.26 11.01 43 11 12.74-.01 24.307-10.672 41-9 16.693 1.672 38.512 15.68 54 17 15.488 1.32 24.646-10.045 38-12s30.906 5.5 48 7 33.731-2.954 46-4c12.269-1.046 20.17 1.316 35 1 14.83-.316 36.588-3.31 53-3 16.412.31 27.478 3.926 41 2 13.522-1.926 29.5-9.394 46-7s33.523 14.65 48 17c14.477 2.35 26.409-5.206 41-10 14.591-4.794 31.842-6.825 46-7 14.158-.175 25.223 1.506 39 6 13.777 4.494 30.266 11.8 46 11 15.734-.8 30.712-9.71 46-15 15.288-5.29 30.885-6.963 48-4s35.747 10.56 43 13c7.253 2.44 3.126-.28 39-3l-40 105H0Z" fill="url(#q)"/><path d="M0 630c16.578-2.011 33.155-4.023 47-2 13.845 2.023 24.957 8.08 37 9 12.043.92 25.017-3.297 43-6s40.974-3.893 56-6c15.026-2.107 22.087-5.131 36-1s34.677 15.417 51 15c16.323-.417 28.206-12.538 41-15 12.794-2.462 26.498 4.734 40 8 13.502 3.266 26.801 2.601 43 0s35.297-7.14 52-10c16.703-2.86 31.01-4.045 45 0 13.99 4.045 27.66 13.317 42 17s29.347 1.775 43-4c13.653-5.775 25.95-15.419 41-15 15.05.419 32.854 10.9 51 12 18.146 1.1 36.634-7.183 50-7 13.366.183 21.611 8.83 34 12s28.922.863 47 1 37.702 2.717 52 0c14.298-2.717 23.272-10.73 36-11 12.728-.27 29.212 7.205 44 9s27.88-2.09 44-3c16.12-.91 35.266 1.158 50-1 14.734-2.158 25.057-8.543 40-7 14.943 1.543 34.508 11.013 50 11 15.492-.013 26.913-9.507 41-9 14.087.507 30.841 11.017 45 11 14.159-.017 25.723-10.561 40-12 14.277-1.439 31.267 6.228 51 10 19.733 3.772 42.21 3.65 50 2 7.79-1.65.895-4.825 34-8l-40 70H0Z" fill="url(#r)"/><path d="M0 665c16.747 1.295 33.493 2.59 50-1 16.507-3.59 32.774-12.068 44-10 11.226 2.068 17.41 14.68 32 19s37.585.35 54-2 26.251-3.078 40-3c13.749.078 31.41.962 46 0s26.105-3.769 40-2c13.895 1.769 30.168 8.113 47 9 16.832.887 34.223-3.683 50-9 15.777-5.317 29.941-11.38 44-10 14.059 1.38 28.012 10.206 44 11 15.988.794 34.012-6.443 48-8 13.988-1.557 23.942 2.567 36 4 12.058 1.433 26.22.175 42-2 15.78-2.175 33.175-5.266 48-5 14.825.266 27.078 3.89 44 9 16.922 5.11 38.513 11.706 54 10 15.487-1.706 24.871-11.713 37-12 12.129-.287 27.002 9.146 44 7 16.998-2.146 36.121-15.87 50-15 13.879.87 22.514 16.332 35 20 12.486 3.668 28.824-4.458 46-8s35.19-2.498 51-2c15.81.498 29.416.452 42 1s24.147 1.691 41 1c16.853-.691 38.998-3.217 54-3 15.002.217 22.862 3.177 38 4 15.138.823 37.552-.49 52-1s20.928-.214 36 0 38.735.347 48 0 4.133-1.173 39-2l-40 35H0Z" fill="url(#s)"/></svg>